
        <svg xmlns="http://www.w3.org/2000/svg" xmlns:xlink="http://www.w3.org/1999/xlink" version="1.1" width="3181.8181818181824" 
        height="1000.0000000000001" viewBox="0 0 3181.8181818181824 1000.0000000000001">
			
			<g transform="scale(9.090909090909092) translate(10, 10)">
				<defs id="SvgjsDefs1815"></defs><g id="SvgjsG1816" featureKey="symbolContainer" transform="matrix(1,0,0,1,0,0)" fill="#355c7d"><rect width="110" height="90" rx="8"></rect></g><g id="SvgjsG1817" featureKey="symbolFeature-0" transform="matrix(0.7382891774177551,0,0,0.7382891774177551,18.09062650222081,7.912423634677923)" fill="#ffffff"><path xmlns="http://www.w3.org/2000/svg" d="M93.8,63.2c-1.8-0.1-5.6,1.9-6.6,2.4c-3.7,1.8-8.7,4.7-12.1,7c-0.2,0.2-0.5,0.4-0.8,0.5c-1.5,1-3.1,1.6-4.8,2  c-9.7,2.1-23.8,2.3-23.8,2.3l-0.8,0c-0.6,0-1.2-0.4-1.3-1c-0.1-0.7,0.4-1.3,1.1-1.3l21-2c2.3-0.3,4.2-2.4,3.9-4.8  c-0.2-2.4-2.5-4.2-4.8-4l-18.7-0.2c-1.3,0-3.3-0.3-4.5-0.7c-12-3.5-18.8-0.2-22.4,1.3c-0.8-1.3-2.3-2.2-4-2.1l-8.1,0.5  c-2.7,0.2-4.7,2.4-4.5,5L3.9,86c0.2,2.6,2.5,4.5,5.2,4.3l8.1-0.5c1.7-0.1,3.1-1.2,3.7-2.6l35.4,1.5c3.9,0.4,7.6-0.1,11.1-1.9l1-0.5  l26.7-15.6c1.3-0.8,2.2-2.1,2.3-3.6C97.4,65.4,96.4,63.4,93.8,63.2z M12.1,86.1c-1.5,0-2.7-1.2-2.7-2.6c0-1.5,1.2-2.6,2.7-2.6  c1.5,0,2.7,1.2,2.7,2.6C14.8,85,13.6,86.1,12.1,86.1z M74,69.3c0-0.5,0-1,0-1.5c-0.1-0.6-0.2-1.2-0.4-1.8c0,0,0-0.1,0-0.1  c2.8-1.5,8.3-4.2,11.4-5.4c1.5-0.6,3-0.6,4.4,0.4c-1.1,0.4-2.1,0.9-3,1.3c-3.2,1.6-8.7,4.6-11.5,6.5C74.5,69,74.2,69.2,74,69.3z   M82,58.7c-2.2,1-6.4,2.4-8.4,3.5L72.3,63c-0.1,0.1-0.2,0.2-0.4,0.2c-0.6-0.7-1.3-1.3-2.1-1.8c1.8-1,6-2.3,7.8-3.1  C79.2,57.8,80.7,57.8,82,58.7z M64,39.4c0.6,0.8,0.5,2-0.2,2.7c-0.8,0.8-2,0.8-2.8,0.1l0,0l-7-5.9c-0.1-0.1-0.3-0.2-0.4-0.3  c-0.6-0.6-0.9-1.3-0.8-2.1c0,0,0,0,0-0.1c0,0,0,0,0,0l0,0l0,0c0-0.1,0-0.2,0-0.2l0.8-12.5c0,0,0-0.1,0-0.1l0,0h0c0.1-1,1-1.8,2-1.8  c1.1,0,2,0.8,2,1.9h0l0.7,11.3c0,0.3,0.2,0.7,0.4,0.9l5.1,6C63.9,39.3,63.9,39.3,64,39.4L64,39.4L64,39.4z M55.9,9.6  C42.7,9.6,32,20.3,32,33.5s10.7,23.8,23.8,23.8s23.8-10.7,23.8-23.8S69,9.6,55.9,9.6z M55.9,51.8c-10.1,0-18.4-8.2-18.4-18.4  c0-10.1,8.2-18.4,18.4-18.4s18.4,8.2,18.4,18.4C74.2,43.6,66,51.8,55.9,51.8z"></path></g><g id="SvgjsG1818" featureKey="nameFeature-0" transform="matrix(0.8371003270149231,0,0,0.8371003270149231,128.35928409118486,24.12673762570364)" fill="#355c7d"><path d="M23.8 13 l0 24.8 c0 1.36 -1.08 2.4 -2.4 2.4 c-1.36 0 -2.44 -1.04 -2.44 -2.4 l0 -1.32 c-1.56 2.2 -3.76 3.96 -7.2 3.96 c-4.96 0 -9.8 -3.96 -9.8 -10.96 l0 -0.08 c0 -7 4.76 -10.96 9.8 -10.96 c3.48 0 5.68 1.72 7.2 3.72 l0 -9.16 c0 -1.36 1.08 -2.4 2.4 -2.4 c1.36 0 2.44 1.04 2.44 2.4 z M12.92 22.64 c-3.32 0 -6.08 2.56 -6.08 6.76 l0 0.08 c0 4.08 2.8 6.76 6.08 6.76 c3.24 0 6.12 -2.72 6.12 -6.76 l0 -0.08 c0 -4.08 -2.88 -6.76 -6.12 -6.76 z M39.92 40.48 c-6.44 0 -11.2 -4.92 -11.2 -10.92 l0 -0.08 c0 -6.04 4.8 -11.04 11.28 -11.04 s11.24 4.92 11.24 10.96 l0 0.08 c0 6 -4.8 11 -11.32 11 z M40 36.24 c3.92 0 6.4 -3.04 6.4 -6.68 l0 -0.08 c0 -3.72 -2.68 -6.8 -6.48 -6.8 c-3.88 0 -6.36 3.04 -6.36 6.72 l0 0.08 c0 3.68 2.68 6.76 6.44 6.76 z M56.160000000000004 37.8 l0 -16.72 c0 -1.36 1.04 -2.44 2.4 -2.44 s2.44 1.08 2.44 2.44 l0 1.04 c1.36 -1.96 3.32 -3.68 6.6 -3.68 c4.76 0 7.52 3.2 7.52 8.08 l0 11.28 c0 1.36 -1.04 2.4 -2.4 2.4 s-2.44 -1.04 -2.44 -2.4 l0 -9.8 c0 -3.28 -1.64 -5.16 -4.52 -5.16 c-2.8 0 -4.76 1.96 -4.76 5.24 l0 9.72 c0 1.36 -1.08 2.4 -2.44 2.4 c-1.32 0 -2.4 -1.04 -2.4 -2.4 z M87.04 40.44 c-3.96 0 -7.48 -2.28 -7.48 -6.52 l0 -0.08 c0 -4.56 3.56 -6.8 8.72 -6.8 c2.36 0 4.04 0.36 5.68 0.88 l0 -0.52 c0 -3 -1.84 -4.6 -5.24 -4.6 c-1.84 0 -3.36 0.32 -4.68 0.84 c-0.28 0.08 -0.52 0.12 -0.76 0.12 c-1.12 0 -2.04 -0.88 -2.04 -2 c0 -0.88 0.6 -1.64 1.32 -1.92 c2 -0.76 4.04 -1.24 6.8 -1.24 c3.16 0 5.52 0.84 7 2.36 c1.56 1.52 2.28 3.76 2.28 6.52 l0 10.4 c0 1.32 -1.04 2.32 -2.36 2.32 c-1.4 0 -2.36 -0.96 -2.36 -2.04 l0 -0.8 c-1.44 1.72 -3.64 3.08 -6.88 3.08 z M88.4 36.92 c3.2 0 5.64 -1.84 5.64 -4.52 l0 -1.44 c-1.24 -0.48 -2.88 -0.84 -4.8 -0.84 c-3.12 0 -4.96 1.32 -4.96 3.52 l0 0.08 c0 2.04 1.8 3.2 4.12 3.2 z M111.52000000000001 40.36 c-3.56 0 -6.08 -1.56 -6.08 -6.2 l0 -11.12 l-0.8 0 c-1.16 0 -2.08 -0.92 -2.08 -2.08 s0.92 -2.08 2.08 -2.08 l0.8 0 l0 -3.6 c0 -1.32 1.08 -2.4 2.44 -2.4 c1.32 0 2.4 1.08 2.4 2.4 l0 3.6 l3.8 0 c1.16 0 2.12 0.92 2.12 2.08 s-0.96 2.08 -2.12 2.08 l-3.8 0 l0 10.36 c0 1.88 0.96 2.64 2.6 2.64 c0.56 0 1.04 -0.12 1.2 -0.12 c1.08 0 2.04 0.88 2.04 2 c0 0.88 -0.6 1.6 -1.28 1.88 c-1.04 0.36 -2.04 0.56 -3.32 0.56 z M124.52000000000001 27.96 l10.84 0 c-0.32 -3.12 -2.16 -5.56 -5.36 -5.56 c-2.96 0 -5.04 2.28 -5.48 5.56 z M138.16 37.68 c-1.92 1.72 -4.32 2.8 -7.6 2.8 c-6.12 0 -10.84 -4.44 -10.84 -10.96 l0 -0.08 c0 -6.04 4.28 -11 10.32 -11 c6.72 0 10.04 5.52 10.04 10.4 c0 1.36 -1.04 2.32 -2.28 2.32 l-13.24 0 c0.52 3.44 2.96 5.36 6.08 5.36 c2.04 0 3.64 -0.72 5 -1.84 c0.36 -0.28 0.68 -0.44 1.24 -0.44 c1.08 0 1.92 0.84 1.92 1.96 c0 0.6 -0.28 1.12 -0.64 1.48 z M152.12 40.36 c-3.56 0 -6.08 -1.56 -6.08 -6.2 l0 -11.12 l-0.8 0 c-1.16 0 -2.08 -0.92 -2.08 -2.08 s0.92 -2.08 2.08 -2.08 l0.8 0 l0 -3.6 c0 -1.32 1.08 -2.4 2.44 -2.4 c1.32 0 2.4 1.08 2.4 2.4 l0 3.6 l3.8 0 c1.16 0 2.12 0.92 2.12 2.08 s-0.96 2.08 -2.12 2.08 l-3.8 0 l0 10.36 c0 1.88 0.96 2.64 2.6 2.64 c0.56 0 1.04 -0.12 1.2 -0.12 c1.08 0 2.04 0.88 2.04 2 c0 0.88 -0.6 1.6 -1.28 1.88 c-1.04 0.36 -2.04 0.56 -3.32 0.56 z M161.4 13.440000000000001 l0 -0.24 c0 -1.44 1.2 -2.36 2.76 -2.36 s2.76 0.92 2.76 2.36 l0 0.24 c0 1.44 -1.2 2.4 -2.76 2.4 s-2.76 -0.96 -2.76 -2.4 z M161.76 37.8 l0 -16.72 c0 -1.36 1.04 -2.44 2.4 -2.44 s2.44 1.08 2.44 2.44 l0 16.72 c0 1.36 -1.08 2.4 -2.44 2.4 c-1.32 0 -2.4 -1.04 -2.4 -2.4 z M172.44 37.04 c0 -1.56 1.2 -2.76 2.84 -2.76 c1.6 0 2.8 1.2 2.8 2.76 l0 0.4 c0 1.56 -1.2 2.76 -2.8 2.76 c-1.64 0 -2.84 -1.2 -2.84 -2.76 l0 -0.4 z M183.67999999999998 37.8 l0 -16.72 c0 -1.36 1.04 -2.44 2.4 -2.44 s2.44 1.08 2.44 2.44 l0 1 c1.36 -1.88 3.2 -3.64 6.44 -3.64 c3.04 0 5.2 1.48 6.32 3.72 c1.68 -2.24 3.92 -3.72 7.12 -3.72 c4.6 0 7.4 2.92 7.4 8.08 l0 11.28 c0 1.36 -1.04 2.4 -2.4 2.4 s-2.44 -1.04 -2.44 -2.4 l0 -9.8 c0 -3.36 -1.56 -5.16 -4.28 -5.16 c-2.64 0 -4.52 1.84 -4.52 5.24 l0 9.72 c0 1.36 -1.08 2.4 -2.4 2.4 c-1.36 0 -2.44 -1.04 -2.44 -2.4 l0 -9.84 c0 -3.28 -1.6 -5.12 -4.28 -5.12 s-4.52 2 -4.52 5.24 l0 9.72 c0 1.36 -1.08 2.4 -2.44 2.4 c-1.32 0 -2.4 -1.04 -2.4 -2.4 z M225.32 27.96 l10.84 0 c-0.32 -3.12 -2.16 -5.56 -5.36 -5.56 c-2.96 0 -5.04 2.28 -5.48 5.56 z M238.95999999999998 37.68 c-1.92 1.72 -4.32 2.8 -7.6 2.8 c-6.12 0 -10.84 -4.44 -10.84 -10.96 l0 -0.08 c0 -6.04 4.28 -11 10.32 -11 c6.72 0 10.04 5.52 10.04 10.4 c0 1.36 -1.04 2.32 -2.28 2.32 l-13.24 0 c0.52 3.44 2.96 5.36 6.08 5.36 c2.04 0 3.64 -0.72 5 -1.84 c0.36 -0.28 0.68 -0.44 1.24 -0.44 c1.08 0 1.92 0.84 1.92 1.96 c0 0.6 -0.28 1.12 -0.64 1.48 z"></path></g>
			</g>
		</svg>
	